<svg xmlns="http://www.w3.org/2000/svg" xmlns:xlink="http://www.w3.org/1999/xlink" width="125" zoomAndPan="magnify" viewBox="0 0 93.75 93.749996" height="125" preserveAspectRatio="xMidYMid meet" version="1.0"><defs><clipPath id="ee3ba9e101"><path d="M 0 61 L 92.753906 61 L 92.753906 93.5 L 0 93.5 Z M 0 61 " clip-rule="nonzero"/></clipPath><clipPath id="cc260545dd"><path d="M 0 61 L 92.753906 61 L 92.753906 93.5 L 0 93.5 Z M 0 61 " clip-rule="nonzero"/></clipPath></defs><path fill="#6b9f25" d="M 47.292969 0.3125 C 46.792969 0.03125 46.289062 0.03125 45.785156 0.3125 L 17.863281 15.824219 C 17.617188 15.960938 17.421875 16.152344 17.28125 16.394531 C 17.136719 16.636719 17.066406 16.898438 17.066406 17.179688 C 17.066406 17.585938 17.089844 27.234375 20.609375 37.8125 C 22.699219 44.085938 25.585938 49.367188 29.199219 53.515625 C 33.765625 58.757812 39.488281 62.179688 46.199219 63.683594 C 46.425781 63.734375 46.652344 63.734375 46.878906 63.683594 C 47.179688 63.617188 54.332031 61.949219 61.527344 55.339844 C 65.738281 51.46875 69.089844 46.703125 71.496094 41.164062 C 74.480469 34.296875 76 26.230469 76.015625 17.183594 C 76.015625 16.902344 75.945312 16.640625 75.800781 16.394531 C 75.65625 16.152344 75.464844 15.960938 75.214844 15.824219 Z M 68.695312 39.820312 C 66.484375 44.949219 63.40625 49.363281 59.550781 52.941406 C 53.777344 58.292969 47.921875 60.179688 46.515625 60.574219 C 40.632812 59.179688 35.601562 56.128906 31.566406 51.507812 C 28.226562 47.683594 25.539062 42.773438 23.578125 36.910156 C 20.800781 28.601562 20.285156 20.691406 20.1875 18.082031 L 46.539062 3.441406 L 72.90625 18.089844 C 72.796875 26.289062 71.378906 33.597656 68.695312 39.820312 Z M 68.695312 39.820312 " fill-opacity="1" fill-rule="nonzero"/><path fill="#6b9f25" d="M 45.785156 9.1875 L 25.90625 20.230469 C 25.632812 20.382812 25.425781 20.59375 25.285156 20.871094 C 25.140625 21.144531 25.085938 21.4375 25.117188 21.746094 C 25.46875 25.171875 26.269531 30.378906 28.089844 35.714844 C 29.863281 40.925781 32.246094 45.246094 35.167969 48.558594 C 38.183594 51.972656 41.683594 54.269531 45.867188 55.574219 C 46.210938 55.679688 46.550781 55.667969 46.886719 55.539062 C 50.632812 54.046875 53.953125 51.894531 56.847656 49.089844 C 63.53125 42.636719 67.320312 33.445312 68.105469 21.765625 C 68.125 21.464844 68.0625 21.183594 67.917969 20.921875 C 67.773438 20.65625 67.570312 20.453125 67.308594 20.304688 L 47.292969 9.1875 C 46.792969 8.90625 46.289062 8.90625 45.785156 9.1875 Z M 64.933594 22.535156 C 64.066406 32.953125 60.621094 41.132812 54.691406 46.859375 C 52.230469 49.242188 49.425781 51.105469 46.273438 52.441406 C 42.875 51.289062 40 49.339844 37.496094 46.503906 C 34.84375 43.5 32.667969 39.535156 31.023438 34.714844 C 29.699219 30.71875 28.796875 26.625 28.316406 22.441406 L 46.539062 12.316406 Z M 64.933594 22.535156 " fill-opacity="1" fill-rule="nonzero"/><path fill="#6b9f25" d="M 42.984375 28.496094 C 42.835938 28.351562 42.667969 28.238281 42.480469 28.160156 C 42.289062 28.082031 42.089844 28.039062 41.886719 28.039062 C 41.679688 28.039062 41.480469 28.082031 41.292969 28.160156 C 41.101562 28.238281 40.933594 28.351562 40.789062 28.496094 L 36.136719 33.148438 C 35.988281 33.292969 35.878906 33.460938 35.796875 33.652344 C 35.71875 33.84375 35.679688 34.039062 35.679688 34.246094 C 35.679688 34.453125 35.71875 34.648438 35.796875 34.839844 C 35.878906 35.03125 35.988281 35.199219 36.136719 35.34375 L 43.890625 43.101562 C 44.035156 43.246094 44.203125 43.355469 44.394531 43.4375 C 44.585938 43.515625 44.78125 43.554688 44.988281 43.554688 C 45.195312 43.554688 45.390625 43.515625 45.582031 43.4375 C 45.773438 43.355469 45.941406 43.246094 46.085938 43.101562 L 60.046875 29.136719 C 60.191406 28.992188 60.304688 28.824219 60.382812 28.632812 C 60.460938 28.445312 60.503906 28.246094 60.503906 28.039062 C 60.503906 27.835938 60.460938 27.636719 60.382812 27.445312 C 60.304688 27.257812 60.191406 27.089844 60.046875 26.945312 L 55.394531 22.289062 C 55.25 22.144531 55.082031 22.03125 54.890625 21.953125 C 54.699219 21.875 54.503906 21.835938 54.296875 21.835938 C 54.089844 21.835938 53.894531 21.875 53.703125 21.953125 C 53.511719 22.03125 53.34375 22.144531 53.199219 22.289062 L 44.988281 30.5 Z M 54.296875 25.582031 L 56.757812 28.039062 L 44.988281 39.808594 L 39.425781 34.246094 L 41.886719 31.785156 L 43.890625 33.792969 C 44.035156 33.9375 44.203125 34.050781 44.394531 34.128906 C 44.585938 34.207031 44.78125 34.246094 44.988281 34.246094 C 45.195312 34.246094 45.390625 34.207031 45.582031 34.128906 C 45.773438 34.050781 45.941406 33.9375 46.085938 33.792969 Z M 54.296875 25.582031 " fill-opacity="1" fill-rule="nonzero"/><g clip-path="url(#ee3ba9e101)"><path fill="#6b9f25" d="M 1.550781 86.992188 L 13.960938 86.992188 C 14.167969 86.992188 14.367188 86.953125 14.554688 86.875 C 14.746094 86.792969 14.914062 86.683594 15.058594 86.535156 C 15.203125 86.390625 15.316406 86.222656 15.394531 86.035156 C 15.472656 85.84375 15.511719 85.644531 15.511719 85.441406 L 15.511719 84.34375 L 49.25 93.148438 C 49.652344 93.25 50.03125 93.203125 50.394531 93 L 92.28125 69.730469 C 92.527344 69.59375 92.722656 69.40625 92.863281 69.164062 C 93.007812 68.917969 93.078125 68.65625 93.078125 68.375 C 93.078125 68.066406 93.058594 67.761719 93.019531 67.453125 C 92.980469 67.148438 92.921875 66.847656 92.84375 66.550781 C 92.765625 66.25 92.667969 65.960938 92.554688 65.675781 C 92.4375 65.390625 92.304688 65.113281 92.15625 64.84375 C 92.003906 64.574219 91.835938 64.316406 91.652344 64.070312 C 91.46875 63.824219 91.269531 63.589844 91.054688 63.367188 C 90.839844 63.144531 90.613281 62.9375 90.371094 62.746094 C 90.128906 62.554688 89.878906 62.378906 89.617188 62.21875 C 89.351562 62.058594 89.078125 61.917969 88.796875 61.792969 C 88.515625 61.667969 88.226562 61.558594 87.933594 61.472656 C 87.636719 61.382812 87.335938 61.316406 87.035156 61.265625 C 86.730469 61.21875 86.421875 61.1875 86.117188 61.175781 C 85.808594 61.167969 85.5 61.175781 85.195312 61.207031 C 84.886719 61.234375 84.582031 61.285156 84.285156 61.351562 C 83.984375 61.421875 83.6875 61.507812 83.398438 61.613281 C 83.109375 61.71875 82.828125 61.84375 82.554688 61.984375 L 72.191406 67.375 C 71.96875 66.90625 71.707031 66.464844 71.398438 66.046875 C 71.089844 65.628906 70.742188 65.25 70.359375 64.902344 C 69.972656 64.554688 69.558594 64.25 69.113281 63.984375 C 68.664062 63.722656 68.199219 63.503906 67.707031 63.335938 C 67.21875 63.164062 66.71875 63.042969 66.203125 62.972656 C 65.691406 62.902344 65.175781 62.886719 64.660156 62.917969 C 64.140625 62.953125 63.632812 63.035156 63.132812 63.171875 C 62.632812 63.308594 62.152344 63.488281 61.6875 63.722656 L 46.386719 71.371094 L 25.246094 65.332031 C 25.109375 65.292969 24.964844 65.273438 24.820312 65.273438 L 15.511719 65.273438 L 15.511719 63.722656 C 15.511719 63.515625 15.472656 63.316406 15.394531 63.128906 C 15.316406 62.9375 15.203125 62.769531 15.058594 62.625 C 14.914062 62.480469 14.746094 62.367188 14.554688 62.289062 C 14.367188 62.210938 14.167969 62.171875 13.960938 62.171875 L 1.550781 62.171875 C 1.34375 62.171875 1.148438 62.210938 0.957031 62.289062 C 0.769531 62.367188 0.601562 62.480469 0.453125 62.625 C 0.308594 62.769531 0.195312 62.9375 0.117188 63.128906 C 0.0390625 63.316406 0 63.515625 0 63.722656 L 0 85.441406 C 0 85.644531 0.0390625 85.84375 0.117188 86.035156 C 0.195312 86.222656 0.308594 86.390625 0.453125 86.535156 C 0.601562 86.683594 0.769531 86.792969 0.957031 86.875 C 1.148438 86.953125 1.34375 86.992188 1.550781 86.992188 Z M 15.511719 68.375 L 24.605469 68.375 L 46.113281 74.519531 C 46.5 74.632812 46.875 74.597656 47.234375 74.417969 L 63.074219 66.496094 C 63.699219 66.175781 64.367188 66.007812 65.070312 65.996094 C 65.777344 65.980469 66.445312 66.125 67.085938 66.421875 C 68.175781 66.917969 68.957031 67.710938 69.433594 68.808594 L 52.03125 77.859375 C 51.847656 77.953125 51.691406 78.078125 51.558594 78.238281 C 51.425781 78.394531 51.328125 78.570312 51.269531 78.765625 C 51.207031 78.964844 51.183594 79.164062 51.203125 79.367188 C 51.21875 79.574219 51.277344 79.765625 51.371094 79.949219 C 51.464844 80.132812 51.59375 80.289062 51.75 80.421875 C 51.90625 80.554688 52.082031 80.652344 52.277344 80.710938 C 52.476562 80.773438 52.675781 80.796875 52.878906 80.78125 C 53.085938 80.761719 53.277344 80.707031 53.460938 80.613281 L 83.984375 64.738281 C 84.265625 64.59375 84.558594 64.480469 84.863281 64.402344 C 85.167969 64.324219 85.480469 64.28125 85.796875 64.277344 C 86.109375 64.269531 86.421875 64.300781 86.730469 64.367188 C 87.039062 64.433594 87.335938 64.53125 87.621094 64.664062 C 87.90625 64.800781 88.175781 64.964844 88.421875 65.160156 C 88.667969 65.355469 88.890625 65.578125 89.085938 65.824219 C 89.285156 66.070312 89.449219 66.335938 89.585938 66.621094 C 89.71875 66.90625 89.820312 67.203125 89.886719 67.511719 L 49.433594 89.988281 L 15.511719 81.140625 Z M 3.101562 65.273438 L 12.410156 65.273438 L 12.410156 83.890625 L 3.101562 83.890625 Z M 3.101562 65.273438 " fill-opacity="1" fill-rule="nonzero"/></g><path fill="#6b9f25" d="M 47.292969 0.3125 C 46.792969 0.03125 46.289062 0.03125 45.785156 0.3125 L 17.863281 15.824219 C 17.617188 15.960938 17.421875 16.152344 17.28125 16.394531 C 17.136719 16.636719 17.066406 16.898438 17.066406 17.179688 C 17.066406 17.585938 17.089844 27.234375 20.609375 37.8125 C 22.699219 44.085938 25.585938 49.367188 29.199219 53.515625 C 33.765625 58.757812 39.488281 62.179688 46.199219 63.683594 C 46.425781 63.734375 46.652344 63.734375 46.878906 63.683594 C 47.179688 63.617188 54.332031 61.949219 61.527344 55.339844 C 65.738281 51.46875 69.089844 46.703125 71.496094 41.164062 C 74.480469 34.296875 76 26.230469 76.015625 17.183594 C 76.015625 16.902344 75.945312 16.640625 75.800781 16.394531 C 75.65625 16.152344 75.464844 15.960938 75.214844 15.824219 Z M 68.695312 39.820312 C 66.484375 44.949219 63.40625 49.363281 59.550781 52.941406 C 53.777344 58.292969 47.921875 60.179688 46.515625 60.574219 C 40.632812 59.179688 35.601562 56.128906 31.566406 51.507812 C 28.226562 47.683594 25.539062 42.773438 23.578125 36.910156 C 20.800781 28.601562 20.285156 20.691406 20.1875 18.082031 L 46.539062 3.441406 L 72.90625 18.089844 C 72.796875 26.289062 71.378906 33.597656 68.695312 39.820312 Z M 68.695312 39.820312 " fill-opacity="1" fill-rule="nonzero"/><path fill="#6b9f25" d="M 45.785156 9.1875 L 25.90625 20.230469 C 25.632812 20.382812 25.425781 20.59375 25.285156 20.871094 C 25.140625 21.144531 25.085938 21.4375 25.117188 21.746094 C 25.46875 25.171875 26.269531 30.378906 28.089844 35.714844 C 29.863281 40.925781 32.246094 45.246094 35.167969 48.558594 C 38.183594 51.972656 41.683594 54.269531 45.867188 55.574219 C 46.210938 55.679688 46.550781 55.667969 46.886719 55.539062 C 50.632812 54.046875 53.953125 51.894531 56.847656 49.089844 C 63.53125 42.636719 67.320312 33.445312 68.105469 21.765625 C 68.125 21.464844 68.0625 21.183594 67.917969 20.921875 C 67.773438 20.65625 67.570312 20.453125 67.308594 20.304688 L 47.292969 9.1875 C 46.792969 8.90625 46.289062 8.90625 45.785156 9.1875 Z M 64.933594 22.535156 C 64.066406 32.953125 60.621094 41.132812 54.691406 46.859375 C 52.230469 49.242188 49.425781 51.105469 46.273438 52.441406 C 42.875 51.289062 40 49.339844 37.496094 46.503906 C 34.84375 43.5 32.667969 39.535156 31.023438 34.714844 C 29.699219 30.71875 28.796875 26.625 28.316406 22.441406 L 46.539062 12.316406 Z M 64.933594 22.535156 " fill-opacity="1" fill-rule="nonzero"/><path fill="#6b9f25" d="M 42.984375 28.496094 C 42.835938 28.351562 42.667969 28.238281 42.480469 28.160156 C 42.289062 28.082031 42.089844 28.039062 41.886719 28.039062 C 41.679688 28.039062 41.480469 28.082031 41.292969 28.160156 C 41.101562 28.238281 40.933594 28.351562 40.789062 28.496094 L 36.136719 33.148438 C 35.988281 33.292969 35.878906 33.460938 35.796875 33.652344 C 35.71875 33.84375 35.679688 34.039062 35.679688 34.246094 C 35.679688 34.453125 35.71875 34.648438 35.796875 34.839844 C 35.878906 35.03125 35.988281 35.199219 36.136719 35.34375 L 43.890625 43.101562 C 44.035156 43.246094 44.203125 43.355469 44.394531 43.4375 C 44.585938 43.515625 44.78125 43.554688 44.988281 43.554688 C 45.195312 43.554688 45.390625 43.515625 45.582031 43.4375 C 45.773438 43.355469 45.941406 43.246094 46.085938 43.101562 L 60.046875 29.136719 C 60.191406 28.992188 60.304688 28.824219 60.382812 28.632812 C 60.460938 28.445312 60.503906 28.246094 60.503906 28.039062 C 60.503906 27.835938 60.460938 27.636719 60.382812 27.445312 C 60.304688 27.257812 60.191406 27.089844 60.046875 26.945312 L 55.394531 22.289062 C 55.25 22.144531 55.082031 22.03125 54.890625 21.953125 C 54.699219 21.875 54.503906 21.835938 54.296875 21.835938 C 54.089844 21.835938 53.894531 21.875 53.703125 21.953125 C 53.511719 22.03125 53.34375 22.144531 53.199219 22.289062 L 44.988281 30.5 Z M 54.296875 25.582031 L 56.757812 28.039062 L 44.988281 39.808594 L 39.425781 34.246094 L 41.886719 31.785156 L 43.890625 33.792969 C 44.035156 33.9375 44.203125 34.050781 44.394531 34.128906 C 44.585938 34.207031 44.78125 34.246094 44.988281 34.246094 C 45.195312 34.246094 45.390625 34.207031 45.582031 34.128906 C 45.773438 34.050781 45.941406 33.9375 46.085938 33.792969 Z M 54.296875 25.582031 " fill-opacity="1" fill-rule="nonzero"/><g clip-path="url(#cc260545dd)"><path fill="#6b9f25" d="M 1.550781 86.992188 L 13.960938 86.992188 C 14.167969 86.992188 14.367188 86.953125 14.554688 86.875 C 14.746094 86.792969 14.914062 86.683594 15.058594 86.535156 C 15.203125 86.390625 15.316406 86.222656 15.394531 86.035156 C 15.472656 85.84375 15.511719 85.644531 15.511719 85.441406 L 15.511719 84.34375 L 49.25 93.148438 C 49.652344 93.25 50.03125 93.203125 50.394531 93 L 92.28125 69.730469 C 92.527344 69.59375 92.722656 69.40625 92.863281 69.164062 C 93.007812 68.917969 93.078125 68.65625 93.078125 68.375 C 93.078125 68.066406 93.058594 67.761719 93.019531 67.453125 C 92.980469 67.148438 92.921875 66.847656 92.84375 66.550781 C 92.765625 66.25 92.667969 65.960938 92.554688 65.675781 C 92.4375 65.390625 92.304688 65.113281 92.15625 64.84375 C 92.003906 64.574219 91.835938 64.316406 91.652344 64.070312 C 91.46875 63.824219 91.269531 63.589844 91.054688 63.367188 C 90.839844 63.144531 90.613281 62.9375 90.371094 62.746094 C 90.128906 62.554688 89.878906 62.378906 89.617188 62.21875 C 89.351562 62.058594 89.078125 61.917969 88.796875 61.792969 C 88.515625 61.667969 88.226562 61.558594 87.933594 61.472656 C 87.636719 61.382812 87.335938 61.316406 87.035156 61.265625 C 86.730469 61.21875 86.421875 61.1875 86.117188 61.175781 C 85.808594 61.167969 85.5 61.175781 85.195312 61.207031 C 84.886719 61.234375 84.582031 61.285156 84.285156 61.351562 C 83.984375 61.421875 83.6875 61.507812 83.398438 61.613281 C 83.109375 61.71875 82.828125 61.84375 82.554688 61.984375 L 72.191406 67.375 C 71.96875 66.90625 71.707031 66.464844 71.398438 66.046875 C 71.089844 65.628906 70.742188 65.25 70.359375 64.902344 C 69.972656 64.554688 69.558594 64.25 69.113281 63.984375 C 68.664062 63.722656 68.199219 63.503906 67.707031 63.335938 C 67.21875 63.164062 66.71875 63.042969 66.203125 62.972656 C 65.691406 62.902344 65.175781 62.886719 64.660156 62.917969 C 64.140625 62.953125 63.632812 63.035156 63.132812 63.171875 C 62.632812 63.308594 62.152344 63.488281 61.6875 63.722656 L 46.386719 71.371094 L 25.246094 65.332031 C 25.109375 65.292969 24.964844 65.273438 24.820312 65.273438 L 15.511719 65.273438 L 15.511719 63.722656 C 15.511719 63.515625 15.472656 63.316406 15.394531 63.128906 C 15.316406 62.9375 15.203125 62.769531 15.058594 62.625 C 14.914062 62.480469 14.746094 62.367188 14.554688 62.289062 C 14.367188 62.210938 14.167969 62.171875 13.960938 62.171875 L 1.550781 62.171875 C 1.34375 62.171875 1.148438 62.210938 0.957031 62.289062 C 0.769531 62.367188 0.601562 62.480469 0.453125 62.625 C 0.308594 62.769531 0.195312 62.9375 0.117188 63.128906 C 0.0390625 63.316406 0 63.515625 0 63.722656 L 0 85.441406 C 0 85.644531 0.0390625 85.84375 0.117188 86.035156 C 0.195312 86.222656 0.308594 86.390625 0.453125 86.535156 C 0.601562 86.683594 0.769531 86.792969 0.957031 86.875 C 1.148438 86.953125 1.34375 86.992188 1.550781 86.992188 Z M 15.511719 68.375 L 24.605469 68.375 L 46.113281 74.519531 C 46.5 74.632812 46.875 74.597656 47.234375 74.417969 L 63.074219 66.496094 C 63.699219 66.175781 64.367188 66.007812 65.070312 65.996094 C 65.777344 65.980469 66.445312 66.125 67.085938 66.421875 C 68.175781 66.917969 68.957031 67.710938 69.433594 68.808594 L 52.03125 77.859375 C 51.847656 77.953125 51.691406 78.078125 51.558594 78.238281 C 51.425781 78.394531 51.328125 78.570312 51.269531 78.765625 C 51.207031 78.964844 51.183594 79.164062 51.203125 79.367188 C 51.21875 79.574219 51.277344 79.765625 51.371094 79.949219 C 51.464844 80.132812 51.59375 80.289062 51.75 80.421875 C 51.90625 80.554688 52.082031 80.652344 52.277344 80.710938 C 52.476562 80.773438 52.675781 80.796875 52.878906 80.78125 C 53.085938 80.761719 53.277344 80.707031 53.460938 80.613281 L 83.984375 64.738281 C 84.265625 64.59375 84.558594 64.480469 84.863281 64.402344 C 85.167969 64.324219 85.480469 64.28125 85.796875 64.277344 C 86.109375 64.269531 86.421875 64.300781 86.730469 64.367188 C 87.039062 64.433594 87.335938 64.53125 87.621094 64.664062 C 87.90625 64.800781 88.175781 64.964844 88.421875 65.160156 C 88.667969 65.355469 88.890625 65.578125 89.085938 65.824219 C 89.285156 66.070312 89.449219 66.335938 89.585938 66.621094 C 89.71875 66.90625 89.820312 67.203125 89.886719 67.511719 L 49.433594 89.988281 L 15.511719 81.140625 Z M 3.101562 65.273438 L 12.410156 65.273438 L 12.410156 83.890625 L 3.101562 83.890625 Z M 3.101562 65.273438 " fill-opacity="1" fill-rule="nonzero"/></g></svg>