<svg xmlns="http://www.w3.org/2000/svg" xmlns:xlink="http://www.w3.org/1999/xlink" width="126" zoomAndPan="magnify" viewBox="0 0 94.5 97.499997" height="130" preserveAspectRatio="xMidYMid meet" version="1.0"><defs><clipPath id="7f4a8a09fa"><path d="M 18 45 L 76 45 L 76 96.25 L 18 96.25 Z M 18 45 " clip-rule="nonzero"/></clipPath><clipPath id="3cd6fdfde3"><path d="M 77 46 L 93.257812 46 L 93.257812 55 L 77 55 Z M 77 46 " clip-rule="nonzero"/></clipPath><clipPath id="adb75a4692"><path d="M 37 0.0078125 L 56 0.0078125 L 56 35 L 37 35 Z M 37 0.0078125 " clip-rule="nonzero"/></clipPath><clipPath id="2d18d74903"><path d="M 18 45 L 76 45 L 76 96.25 L 18 96.25 Z M 18 45 " clip-rule="nonzero"/></clipPath><clipPath id="671c6614bb"><path d="M 77 46 L 93.257812 46 L 93.257812 55 L 77 55 Z M 77 46 " clip-rule="nonzero"/></clipPath><clipPath id="8bacada3ad"><path d="M 37 0.0078125 L 56 0.0078125 L 56 35 L 37 35 Z M 37 0.0078125 " clip-rule="nonzero"/></clipPath></defs><path fill="#6b9f25" d="M 46.8125 54.933594 C 43.382812 54.933594 40.589844 52.140625 40.589844 48.710938 C 40.589844 45.28125 43.382812 42.488281 46.8125 42.488281 C 50.246094 42.488281 53.035156 45.28125 53.035156 48.710938 C 53.035156 52.140625 50.246094 54.933594 46.8125 54.933594 Z M 46.8125 39.976562 C 42 39.976562 38.082031 43.894531 38.082031 48.710938 C 38.082031 53.527344 42 57.441406 46.8125 57.441406 C 51.628906 57.441406 55.546875 53.527344 55.546875 48.710938 C 55.546875 43.894531 51.628906 39.976562 46.8125 39.976562 " fill-opacity="1" fill-rule="nonzero"/><g clip-path="url(#7f4a8a09fa)"><path fill="#6b9f25" d="M 73.726562 46.714844 C 71.464844 44.457031 67.800781 44.457031 65.539062 46.714844 L 53.332031 58.917969 C 52.175781 60.078125 50.574219 60.742188 48.929688 60.742188 L 44.699219 60.742188 C 43.035156 60.742188 41.46875 60.097656 40.292969 58.917969 L 28.089844 46.714844 C 25.828125 44.457031 22.160156 44.457031 19.898438 46.714844 C 17.648438 48.96875 17.648438 52.640625 19.898438 54.898438 L 36.867188 71.863281 L 36.867188 95.25 C 36.867188 95.941406 37.429688 96.503906 38.121094 96.503906 C 38.816406 96.503906 39.375 95.941406 39.375 95.25 L 39.375 71.34375 C 39.375 71.011719 39.246094 70.691406 39.011719 70.453125 L 21.675781 53.125 C 20.398438 51.847656 20.398438 49.765625 21.675781 48.488281 C 22.953125 47.210938 25.039062 47.210938 26.3125 48.488281 L 38.515625 60.691406 C 40.164062 62.34375 42.359375 63.253906 44.699219 63.253906 L 48.929688 63.253906 C 51.230469 63.253906 53.488281 62.316406 55.113281 60.695312 L 67.316406 48.488281 C 68.589844 47.210938 70.675781 47.210938 71.949219 48.488281 C 73.226562 49.765625 73.226562 51.847656 71.949219 53.125 L 54.617188 70.453125 C 54.382812 70.691406 54.25 71.011719 54.25 71.34375 L 54.25 95.25 C 54.25 95.941406 54.8125 96.503906 55.507812 96.503906 C 56.199219 96.503906 56.761719 95.941406 56.761719 95.25 L 56.761719 71.863281 L 73.726562 54.898438 C 75.980469 52.640625 75.980469 48.96875 73.726562 46.714844 " fill-opacity="1" fill-rule="nonzero"/></g><path fill="#6b9f25" d="M 30.019531 30.089844 C 26.261719 28.441406 17.496094 22.964844 17.996094 7.949219 C 21.21875 9.035156 29.144531 13.390625 30.019531 30.089844 Z M 31.019531 33.125 C 31.125 33.152344 31.234375 33.164062 31.339844 33.164062 C 31.617188 33.164062 31.894531 33.074219 32.117188 32.898438 C 32.425781 32.652344 32.601562 32.28125 32.59375 31.886719 C 32.101562 7.300781 17.597656 5.195312 16.980469 5.117188 C 16.636719 5.082031 16.292969 5.175781 16.027344 5.394531 C 15.761719 5.613281 15.597656 5.929688 15.574219 6.273438 C 13.996094 28.355469 30.851562 33.078125 31.019531 33.125 " fill-opacity="1" fill-rule="nonzero"/><path fill="#6b9f25" d="M 17.316406 38.199219 C 14.234375 38.65625 7.882812 38.582031 4.296875 31.4375 C 6.738281 31.164062 12.066406 31.507812 17.316406 38.199219 Z M 15.214844 40.820312 C 17.878906 40.820312 19.800781 40.21875 19.851562 40.203125 C 20.226562 40.078125 20.523438 39.785156 20.652344 39.414062 C 20.777344 39.039062 20.71875 38.625 20.5 38.300781 C 12.003906 25.90625 2.484375 29.210938 2.082031 29.355469 C 1.761719 29.472656 1.503906 29.710938 1.363281 30.023438 C 1.226562 30.335938 1.222656 30.6875 1.347656 31.003906 C 4.667969 39.238281 10.90625 40.820312 15.214844 40.820312 " fill-opacity="1" fill-rule="nonzero"/><path fill="#6b9f25" d="M 16.824219 68.832031 C 15.183594 69.824219 13.207031 70.15625 10.945312 69.828125 C 11.875 68.097656 14.34375 65.097656 20.4375 64.539062 C 19.835938 65.859375 18.71875 67.683594 16.824219 68.832031 Z M 22.257812 61.9375 C 22.253906 61.9375 22.25 61.9375 22.242188 61.9375 C 10.097656 62.054688 8.078125 70.136719 7.996094 70.476562 C 7.835938 71.144531 8.246094 71.8125 8.910156 71.976562 C 10.199219 72.304688 11.429688 72.464844 12.597656 72.464844 C 14.652344 72.464844 16.507812 71.960938 18.148438 70.960938 C 22.277344 68.441406 23.433594 63.679688 23.480469 63.476562 C 23.566406 63.101562 23.476562 62.710938 23.238281 62.410156 C 22.996094 62.113281 22.636719 61.9375 22.257812 61.9375 " fill-opacity="1" fill-rule="nonzero"/><path fill="#6b9f25" d="M 3.441406 50.453125 C 7.75 48.417969 10.875 49.777344 12.410156 50.839844 C 10.640625 51.976562 8.902344 52.445312 7.253906 52.234375 C 5.59375 52.027344 4.277344 51.171875 3.441406 50.453125 Z M 15.21875 51.902344 C 15.488281 51.6875 15.65625 51.371094 15.683594 51.03125 C 15.714844 50.691406 15.601562 50.355469 15.378906 50.097656 C 15.316406 50.03125 9.585938 43.660156 0.738281 49.0625 C 0.441406 49.246094 0.230469 49.546875 0.160156 49.890625 C 0.09375 50.238281 0.175781 50.59375 0.382812 50.878906 C 0.480469 51.011719 2.859375 54.199219 6.902344 54.71875 C 7.28125 54.769531 7.660156 54.796875 8.042969 54.796875 C 10.425781 54.796875 12.839844 53.824219 15.21875 51.902344 " fill-opacity="1" fill-rule="nonzero"/><path fill="#6b9f25" d="M 75.628906 7.945312 C 76.132812 22.964844 67.367188 28.441406 63.609375 30.089844 C 64.484375 13.382812 72.414062 9.03125 75.628906 7.945312 Z M 62.285156 33.164062 C 62.394531 33.164062 62.503906 33.152344 62.605469 33.125 C 62.777344 33.078125 79.632812 28.355469 78.054688 6.273438 C 78.03125 5.929688 77.863281 5.613281 77.601562 5.394531 C 77.332031 5.175781 76.984375 5.078125 76.644531 5.117188 C 76.027344 5.195312 61.527344 7.300781 61.03125 31.886719 C 61.027344 32.28125 61.203125 32.652344 61.511719 32.898438 C 61.734375 33.074219 62.007812 33.164062 62.285156 33.164062 " fill-opacity="1" fill-rule="nonzero"/><path fill="#6b9f25" d="M 89.339844 31.425781 C 85.742188 38.585938 79.390625 38.648438 76.3125 38.199219 C 81.589844 31.453125 86.890625 31.128906 89.339844 31.425781 Z M 73.128906 38.300781 C 72.90625 38.625 72.851562 39.039062 72.976562 39.414062 C 73.101562 39.785156 73.402344 40.078125 73.777344 40.203125 C 73.824219 40.21875 75.75 40.820312 78.414062 40.820312 C 82.722656 40.820312 88.957031 39.238281 92.28125 31.003906 C 92.40625 30.6875 92.398438 30.335938 92.261719 30.023438 C 92.125 29.710938 91.867188 29.472656 91.546875 29.355469 C 91.144531 29.210938 81.625 25.90625 73.128906 38.300781 " fill-opacity="1" fill-rule="nonzero"/><path fill="#6b9f25" d="M 76.804688 68.832031 C 74.910156 67.683594 73.792969 65.859375 73.191406 64.539062 C 79.285156 65.097656 81.753906 68.097656 82.683594 69.828125 C 80.414062 70.15625 78.445312 69.820312 76.804688 68.832031 Z M 71.382812 61.9375 C 71.378906 61.9375 71.375 61.9375 71.371094 61.9375 C 70.992188 61.9375 70.628906 62.113281 70.390625 62.410156 C 70.152344 62.710938 70.0625 63.101562 70.148438 63.476562 C 70.195312 63.679688 71.347656 68.441406 75.480469 70.960938 C 77.121094 71.964844 78.976562 72.464844 81.03125 72.464844 C 82.199219 72.464844 83.425781 72.304688 84.71875 71.976562 C 85.382812 71.8125 85.789062 71.144531 85.632812 70.476562 C 85.550781 70.136719 83.53125 62.054688 71.382812 61.9375 " fill-opacity="1" fill-rule="nonzero"/><g clip-path="url(#3cd6fdfde3)"><path fill="#6b9f25" d="M 86.402344 52.230469 C 84.742188 52.453125 83 51.980469 81.21875 50.839844 C 82.757812 49.777344 85.882812 48.417969 90.191406 50.457031 C 89.363281 51.167969 88.0625 52.015625 86.402344 52.230469 Z M 92.886719 49.0625 C 84.039062 43.660156 78.308594 50.03125 78.25 50.097656 C 78.023438 50.355469 77.914062 50.691406 77.945312 51.03125 C 77.972656 51.371094 78.140625 51.6875 78.40625 51.902344 C 80.789062 53.824219 83.203125 54.796875 85.585938 54.796875 C 85.964844 54.796875 86.34375 54.769531 86.726562 54.71875 C 90.765625 54.199219 93.144531 51.011719 93.246094 50.878906 C 93.453125 50.59375 93.535156 50.238281 93.464844 49.890625 C 93.398438 49.546875 93.1875 49.246094 92.886719 49.0625 " fill-opacity="1" fill-rule="nonzero"/></g><g clip-path="url(#adb75a4692)"><path fill="#6b9f25" d="M 46.8125 3.039062 C 50.714844 6.804688 54.152344 13.707031 53.050781 20.957031 C 52.171875 26.726562 48.40625 30.488281 46.8125 31.847656 C 45.222656 30.488281 41.453125 26.726562 40.578125 20.957031 C 39.472656 13.707031 42.914062 6.804688 46.8125 3.039062 Z M 46.101562 34.480469 C 46.316406 34.628906 46.566406 34.703125 46.8125 34.703125 C 47.0625 34.703125 47.3125 34.628906 47.527344 34.480469 C 47.800781 34.292969 54.25 29.761719 55.53125 21.332031 C 56.863281 12.585938 52.515625 4.511719 47.621094 0.390625 C 47.15625 0 46.472656 0 46.007812 0.390625 C 41.113281 4.511719 36.765625 12.585938 38.097656 21.332031 C 39.375 29.761719 45.828125 34.292969 46.101562 34.480469 " fill-opacity="1" fill-rule="nonzero"/></g><path fill="#6b9f25" d="M 46.8125 54.933594 C 43.382812 54.933594 40.589844 52.140625 40.589844 48.710938 C 40.589844 45.28125 43.382812 42.488281 46.8125 42.488281 C 50.246094 42.488281 53.035156 45.28125 53.035156 48.710938 C 53.035156 52.140625 50.246094 54.933594 46.8125 54.933594 Z M 46.8125 39.976562 C 42 39.976562 38.082031 43.894531 38.082031 48.710938 C 38.082031 53.527344 42 57.441406 46.8125 57.441406 C 51.628906 57.441406 55.546875 53.527344 55.546875 48.710938 C 55.546875 43.894531 51.628906 39.976562 46.8125 39.976562 " fill-opacity="1" fill-rule="nonzero"/><g clip-path="url(#2d18d74903)"><path fill="#6b9f25" d="M 73.726562 46.714844 C 71.464844 44.457031 67.800781 44.457031 65.539062 46.714844 L 53.332031 58.917969 C 52.175781 60.078125 50.574219 60.742188 48.929688 60.742188 L 44.699219 60.742188 C 43.035156 60.742188 41.46875 60.097656 40.292969 58.917969 L 28.089844 46.714844 C 25.828125 44.457031 22.160156 44.457031 19.898438 46.714844 C 17.648438 48.96875 17.648438 52.640625 19.898438 54.898438 L 36.867188 71.863281 L 36.867188 95.25 C 36.867188 95.941406 37.429688 96.503906 38.121094 96.503906 C 38.816406 96.503906 39.375 95.941406 39.375 95.25 L 39.375 71.34375 C 39.375 71.011719 39.246094 70.691406 39.011719 70.453125 L 21.675781 53.125 C 20.398438 51.847656 20.398438 49.765625 21.675781 48.488281 C 22.953125 47.210938 25.039062 47.210938 26.3125 48.488281 L 38.515625 60.691406 C 40.164062 62.34375 42.359375 63.253906 44.699219 63.253906 L 48.929688 63.253906 C 51.230469 63.253906 53.488281 62.316406 55.113281 60.695312 L 67.316406 48.488281 C 68.589844 47.210938 70.675781 47.210938 71.949219 48.488281 C 73.226562 49.765625 73.226562 51.847656 71.949219 53.125 L 54.617188 70.453125 C 54.382812 70.691406 54.25 71.011719 54.25 71.34375 L 54.25 95.25 C 54.25 95.941406 54.8125 96.503906 55.507812 96.503906 C 56.199219 96.503906 56.761719 95.941406 56.761719 95.25 L 56.761719 71.863281 L 73.726562 54.898438 C 75.980469 52.640625 75.980469 48.96875 73.726562 46.714844 " fill-opacity="1" fill-rule="nonzero"/></g><path fill="#6b9f25" d="M 30.019531 30.089844 C 26.261719 28.441406 17.496094 22.964844 17.996094 7.949219 C 21.21875 9.035156 29.144531 13.390625 30.019531 30.089844 Z M 31.019531 33.125 C 31.125 33.152344 31.234375 33.164062 31.339844 33.164062 C 31.617188 33.164062 31.894531 33.074219 32.117188 32.898438 C 32.425781 32.652344 32.601562 32.28125 32.59375 31.886719 C 32.101562 7.300781 17.597656 5.195312 16.980469 5.117188 C 16.636719 5.082031 16.292969 5.175781 16.027344 5.394531 C 15.761719 5.613281 15.597656 5.929688 15.574219 6.273438 C 13.996094 28.355469 30.851562 33.078125 31.019531 33.125 " fill-opacity="1" fill-rule="nonzero"/><path fill="#6b9f25" d="M 17.316406 38.199219 C 14.234375 38.65625 7.882812 38.582031 4.296875 31.4375 C 6.738281 31.164062 12.066406 31.507812 17.316406 38.199219 Z M 15.214844 40.820312 C 17.878906 40.820312 19.800781 40.21875 19.851562 40.203125 C 20.226562 40.078125 20.523438 39.785156 20.652344 39.414062 C 20.777344 39.039062 20.71875 38.625 20.5 38.300781 C 12.003906 25.90625 2.484375 29.210938 2.082031 29.355469 C 1.761719 29.472656 1.503906 29.710938 1.363281 30.023438 C 1.226562 30.335938 1.222656 30.6875 1.347656 31.003906 C 4.667969 39.238281 10.90625 40.820312 15.214844 40.820312 " fill-opacity="1" fill-rule="nonzero"/><path fill="#6b9f25" d="M 16.824219 68.832031 C 15.183594 69.824219 13.207031 70.15625 10.945312 69.828125 C 11.875 68.097656 14.34375 65.097656 20.4375 64.539062 C 19.835938 65.859375 18.71875 67.683594 16.824219 68.832031 Z M 22.257812 61.9375 C 22.253906 61.9375 22.25 61.9375 22.242188 61.9375 C 10.097656 62.054688 8.078125 70.136719 7.996094 70.476562 C 7.835938 71.144531 8.246094 71.8125 8.910156 71.976562 C 10.199219 72.304688 11.429688 72.464844 12.597656 72.464844 C 14.652344 72.464844 16.507812 71.960938 18.148438 70.960938 C 22.277344 68.441406 23.433594 63.679688 23.480469 63.476562 C 23.566406 63.101562 23.476562 62.710938 23.238281 62.410156 C 22.996094 62.113281 22.636719 61.9375 22.257812 61.9375 " fill-opacity="1" fill-rule="nonzero"/><path fill="#6b9f25" d="M 3.441406 50.453125 C 7.75 48.417969 10.875 49.777344 12.410156 50.839844 C 10.640625 51.976562 8.902344 52.445312 7.253906 52.234375 C 5.59375 52.027344 4.277344 51.171875 3.441406 50.453125 Z M 15.21875 51.902344 C 15.488281 51.6875 15.65625 51.371094 15.683594 51.03125 C 15.714844 50.691406 15.601562 50.355469 15.378906 50.097656 C 15.316406 50.03125 9.585938 43.660156 0.738281 49.0625 C 0.441406 49.246094 0.230469 49.546875 0.160156 49.890625 C 0.09375 50.238281 0.175781 50.59375 0.382812 50.878906 C 0.480469 51.011719 2.859375 54.199219 6.902344 54.71875 C 7.28125 54.769531 7.660156 54.796875 8.042969 54.796875 C 10.425781 54.796875 12.839844 53.824219 15.21875 51.902344 " fill-opacity="1" fill-rule="nonzero"/><path fill="#6b9f25" d="M 75.628906 7.945312 C 76.132812 22.964844 67.367188 28.441406 63.609375 30.089844 C 64.484375 13.382812 72.414062 9.03125 75.628906 7.945312 Z M 62.285156 33.164062 C 62.394531 33.164062 62.503906 33.152344 62.605469 33.125 C 62.777344 33.078125 79.632812 28.355469 78.054688 6.273438 C 78.03125 5.929688 77.863281 5.613281 77.601562 5.394531 C 77.332031 5.175781 76.984375 5.078125 76.644531 5.117188 C 76.027344 5.195312 61.527344 7.300781 61.03125 31.886719 C 61.027344 32.28125 61.203125 32.652344 61.511719 32.898438 C 61.734375 33.074219 62.007812 33.164062 62.285156 33.164062 " fill-opacity="1" fill-rule="nonzero"/><path fill="#6b9f25" d="M 89.339844 31.425781 C 85.742188 38.585938 79.390625 38.648438 76.3125 38.199219 C 81.589844 31.453125 86.890625 31.128906 89.339844 31.425781 Z M 73.128906 38.300781 C 72.90625 38.625 72.851562 39.039062 72.976562 39.414062 C 73.101562 39.785156 73.402344 40.078125 73.777344 40.203125 C 73.824219 40.21875 75.75 40.820312 78.414062 40.820312 C 82.722656 40.820312 88.957031 39.238281 92.28125 31.003906 C 92.40625 30.6875 92.398438 30.335938 92.261719 30.023438 C 92.125 29.710938 91.867188 29.472656 91.546875 29.355469 C 91.144531 29.210938 81.625 25.90625 73.128906 38.300781 " fill-opacity="1" fill-rule="nonzero"/><path fill="#6b9f25" d="M 76.804688 68.832031 C 74.910156 67.683594 73.792969 65.859375 73.191406 64.539062 C 79.285156 65.097656 81.753906 68.097656 82.683594 69.828125 C 80.414062 70.15625 78.445312 69.820312 76.804688 68.832031 Z M 71.382812 61.9375 C 71.378906 61.9375 71.375 61.9375 71.371094 61.9375 C 70.992188 61.9375 70.628906 62.113281 70.390625 62.410156 C 70.152344 62.710938 70.0625 63.101562 70.148438 63.476562 C 70.195312 63.679688 71.347656 68.441406 75.480469 70.960938 C 77.121094 71.964844 78.976562 72.464844 81.03125 72.464844 C 82.199219 72.464844 83.425781 72.304688 84.71875 71.976562 C 85.382812 71.8125 85.789062 71.144531 85.632812 70.476562 C 85.550781 70.136719 83.53125 62.054688 71.382812 61.9375 " fill-opacity="1" fill-rule="nonzero"/><g clip-path="url(#671c6614bb)"><path fill="#6b9f25" d="M 86.402344 52.230469 C 84.742188 52.453125 83 51.980469 81.21875 50.839844 C 82.757812 49.777344 85.882812 48.417969 90.191406 50.457031 C 89.363281 51.167969 88.0625 52.015625 86.402344 52.230469 Z M 92.886719 49.0625 C 84.039062 43.660156 78.308594 50.03125 78.25 50.097656 C 78.023438 50.355469 77.914062 50.691406 77.945312 51.03125 C 77.972656 51.371094 78.140625 51.6875 78.40625 51.902344 C 80.789062 53.824219 83.203125 54.796875 85.585938 54.796875 C 85.964844 54.796875 86.34375 54.769531 86.726562 54.71875 C 90.765625 54.199219 93.144531 51.011719 93.246094 50.878906 C 93.453125 50.59375 93.535156 50.238281 93.464844 49.890625 C 93.398438 49.546875 93.1875 49.246094 92.886719 49.0625 " fill-opacity="1" fill-rule="nonzero"/></g><g clip-path="url(#8bacada3ad)"><path fill="#6b9f25" d="M 46.8125 3.039062 C 50.714844 6.804688 54.152344 13.707031 53.050781 20.957031 C 52.171875 26.726562 48.40625 30.488281 46.8125 31.847656 C 45.222656 30.488281 41.453125 26.726562 40.578125 20.957031 C 39.472656 13.707031 42.914062 6.804688 46.8125 3.039062 Z M 46.101562 34.480469 C 46.316406 34.628906 46.566406 34.703125 46.8125 34.703125 C 47.0625 34.703125 47.3125 34.628906 47.527344 34.480469 C 47.800781 34.292969 54.25 29.761719 55.53125 21.332031 C 56.863281 12.585938 52.515625 4.511719 47.621094 0.390625 C 47.15625 0 46.472656 0 46.007812 0.390625 C 41.113281 4.511719 36.765625 12.585938 38.097656 21.332031 C 39.375 29.761719 45.828125 34.292969 46.101562 34.480469 " fill-opacity="1" fill-rule="nonzero"/></g></svg>