<svg xmlns="http://www.w3.org/2000/svg" xmlns:xlink="http://www.w3.org/1999/xlink" width="153" zoomAndPan="magnify" viewBox="0 0 114.75 89.249998" height="119" preserveAspectRatio="xMidYMid meet" version="1.0"><defs><clipPath id="f11c24aec3"><path d="M 31 8 L 113.402344 8 L 113.402344 54 L 31 54 Z M 31 8 " clip-rule="nonzero"/></clipPath><clipPath id="c52051d12c"><path d="M 0.355469 9 L 104 9 L 104 81 L 0.355469 81 Z M 0.355469 9 " clip-rule="nonzero"/></clipPath><clipPath id="55830abe28"><path d="M 53 75 L 67 75 L 67 88.144531 L 53 88.144531 Z M 53 75 " clip-rule="nonzero"/></clipPath><clipPath id="8c7f569778"><path d="M 31 8 L 113.402344 8 L 113.402344 54 L 31 54 Z M 31 8 " clip-rule="nonzero"/></clipPath><clipPath id="75b2101e16"><path d="M 0.355469 9 L 104 9 L 104 81 L 0.355469 81 Z M 0.355469 9 " clip-rule="nonzero"/></clipPath><clipPath id="3827020249"><path d="M 53 75 L 67 75 L 67 88.144531 L 53 88.144531 Z M 53 75 " clip-rule="nonzero"/></clipPath></defs><g clip-path="url(#f11c24aec3)"><path fill="#6b9f25" d="M 50.144531 12.40625 L 32.644531 26.386719 C 32.632812 26.398438 32.621094 26.402344 32.609375 26.414062 C 31.660156 27.128906 31.273438 27.839844 31.460938 28.511719 C 31.789062 29.722656 33.617188 30.921875 35.441406 31.128906 C 39.894531 31.632812 46.578125 28.394531 50.917969 25.167969 C 51.417969 24.78125 52.121094 24.710938 52.703125 25.046875 L 101.480469 53.207031 C 102.84375 50.433594 106.230469 45.375 113.464844 43.070312 L 98.574219 12.125 C 95.789062 14.257812 91.539062 16.429688 86.929688 16.429688 C 84.378906 16.429688 81.726562 15.765625 79.144531 14.066406 C 72.785156 9.875 60.5625 4.082031 50.144531 12.40625 Z M 50.144531 12.40625 " fill-opacity="1" fill-rule="evenodd"/></g><g clip-path="url(#c52051d12c)"><path fill="#6b9f25" d="M 17.695312 13.683594 L 0.347656 43.726562 L 13.046875 51.058594 C 15.359375 48.203125 19.476562 47.371094 22.757812 49.261719 C 24.160156 50.070312 25.242188 51.28125 25.890625 52.738281 C 26.902344 51.410156 28.320312 50.460938 29.96875 50.019531 C 31.929688 49.492188 33.984375 49.757812 35.738281 50.769531 C 37.492188 51.78125 38.746094 53.425781 39.273438 55.390625 C 39.425781 55.960938 39.511719 56.535156 39.53125 57.109375 C 39.613281 57.085938 39.6875 57.066406 39.765625 57.042969 C 41.730469 56.515625 43.78125 56.78125 45.535156 57.796875 C 47.289062 58.804688 48.542969 60.449219 49.070312 62.414062 C 49.589844 64.359375 49.335938 66.386719 48.347656 68.128906 C 49.90625 67.980469 51.46875 68.316406 52.851562 69.113281 C 52.949219 69.167969 53.042969 69.226562 53.136719 69.285156 L 65.964844 76.691406 L 65.972656 76.695312 L 71.136719 79.679688 C 72.226562 80.308594 73.503906 80.476562 74.734375 80.140625 C 75.964844 79.8125 76.984375 79.03125 77.613281 77.941406 C 78.242188 76.847656 78.410156 75.570312 78.078125 74.339844 C 77.75 73.121094 76.976562 72.105469 75.902344 71.472656 L 75.878906 71.460938 L 60.363281 62.503906 C 59.597656 62.0625 59.332031 61.082031 59.777344 60.3125 C 60.21875 59.542969 61.207031 59.28125 61.972656 59.726562 L 77.476562 68.679688 L 77.484375 68.683594 L 83.238281 72 C 84.332031 72.632812 85.605469 72.796875 86.835938 72.464844 C 88.0625 72.140625 89.089844 71.355469 89.71875 70.261719 C 90.347656 69.171875 90.515625 67.898438 90.179688 66.664062 C 89.863281 65.472656 89.117188 64.476562 88.078125 63.839844 C 88.042969 63.824219 88.011719 63.808594 87.980469 63.789062 L 72.464844 54.832031 C 71.695312 54.386719 71.433594 53.402344 71.878906 52.636719 C 72.320312 51.871094 73.304688 51.605469 74.070312 52.050781 L 89.453125 60.933594 C 89.5 60.953125 89.542969 60.976562 89.589844 61.003906 L 89.597656 61.007812 L 95.996094 64.703125 C 98.261719 66.011719 101.167969 65.234375 102.476562 62.964844 C 103.105469 61.875 103.273438 60.601562 102.941406 59.367188 C 102.675781 58.371094 102.109375 57.511719 101.328125 56.890625 C 101.28125 56.859375 101.238281 56.824219 101.191406 56.785156 C 101.050781 56.679688 100.894531 56.578125 100.738281 56.488281 L 52 28.347656 C 48.011719 31.121094 40.761719 34.972656 35.082031 34.320312 C 32.332031 34.003906 29.140625 32.199219 28.367188 29.355469 C 28.050781 28.191406 27.929688 25.941406 30.660156 23.859375 L 47.355469 10.523438 C 43.433594 8.003906 41.253906 9.613281 37.890625 12.089844 C 35.101562 14.140625 31.835938 16.550781 27.03125 16.550781 C 25.078125 16.550781 22.875 16.152344 20.34375 15.175781 C 20.265625 15.148438 20.195312 15.113281 20.121094 15.070312 Z M 17.695312 13.683594 " fill-opacity="1" fill-rule="evenodd"/></g><path fill="#6b9f25" d="M 14.910156 54.070312 L 10.042969 62.5 C 8.832031 64.59375 9.554688 67.285156 11.648438 68.496094 C 12.65625 69.082031 13.839844 69.230469 14.980469 68.925781 C 16.117188 68.621094 17.0625 67.898438 17.648438 66.886719 L 17.6875 66.828125 L 22.859375 57.871094 C 23.363281 56.902344 23.484375 55.789062 23.195312 54.714844 C 22.890625 53.578125 22.164062 52.632812 21.15625 52.046875 C 19.058594 50.832031 16.367188 51.554688 15.15625 53.652344 L 14.988281 53.945312 L 14.953125 54.011719 Z M 14.910156 54.070312 " fill-opacity="1" fill-rule="evenodd"/><path fill="#6b9f25" d="M 28.128906 55.167969 L 20.433594 68.5 C 19.847656 69.507812 19.699219 70.691406 20.003906 71.832031 C 20.308594 72.96875 21.03125 73.914062 22.042969 74.5 C 23.050781 75.085938 24.234375 75.234375 25.375 74.929688 C 26.449219 74.644531 27.351562 73.984375 27.941406 73.0625 L 28.039062 72.890625 C 28.0625 72.84375 28.089844 72.800781 28.121094 72.761719 L 35.085938 60.695312 C 35.101562 60.65625 35.121094 60.621094 35.144531 60.582031 C 35.191406 60.5 35.242188 60.417969 35.292969 60.335938 L 35.742188 59.554688 C 36.953125 57.460938 36.234375 54.769531 34.136719 53.558594 C 33.460938 53.167969 32.714844 52.972656 31.957031 52.972656 C 31.570312 52.972656 31.183594 53.023438 30.804688 53.128906 C 29.664062 53.433594 28.714844 54.152344 28.128906 55.167969 Z M 28.128906 55.167969 " fill-opacity="1" fill-rule="evenodd"/><path fill="#6b9f25" d="M 37.960938 62.117188 L 30.816406 74.492188 L 30.753906 74.597656 C 29.628906 76.679688 30.363281 79.300781 32.421875 80.492188 C 34.496094 81.691406 37.164062 80.988281 38.386719 78.9375 L 38.417969 78.882812 L 38.457031 78.824219 L 45.527344 66.578125 C 46.738281 64.484375 46.019531 61.792969 43.921875 60.582031 C 42.914062 59.996094 41.730469 59.84375 40.589844 60.152344 C 39.480469 60.445312 38.546875 61.144531 37.960938 62.117188 Z M 37.960938 62.117188 " fill-opacity="1" fill-rule="evenodd"/><path fill="#6b9f25" d="M 45.3125 73.378906 L 41.207031 80.492188 L 41.125 80.625 C 40.601562 81.605469 40.480469 82.730469 40.769531 83.816406 C 41.074219 84.953125 41.796875 85.898438 42.808594 86.484375 C 43.816406 87.066406 45 87.21875 46.140625 86.914062 C 47.277344 86.613281 48.222656 85.886719 48.808594 84.875 L 52.84375 77.890625 C 54.023438 75.847656 53.367188 73.242188 51.402344 71.992188 L 51.234375 71.894531 C 51.207031 71.878906 51.175781 71.859375 51.148438 71.839844 C 49.105469 70.726562 46.535156 71.410156 45.3125 73.378906 Z M 45.3125 73.378906 " fill-opacity="1" fill-rule="evenodd"/><g clip-path="url(#55830abe28)"><path fill="#6b9f25" d="M 56.609375 75 C 56.757812 76.558594 56.421875 78.117188 55.628906 79.496094 L 53.078125 83.914062 L 59.621094 87.691406 C 60.710938 88.320312 61.988281 88.488281 63.21875 88.15625 C 64.445312 87.828125 65.472656 87.042969 66.097656 85.953125 C 66.730469 84.859375 66.894531 83.585938 66.5625 82.355469 C 66.242188 81.148438 65.476562 80.132812 64.410156 79.503906 L 64.363281 79.472656 Z M 56.609375 75 " fill-opacity="1" fill-rule="evenodd"/></g><g clip-path="url(#8c7f569778)"><path fill="#6b9f25" d="M 50.144531 12.40625 L 32.644531 26.386719 C 32.632812 26.398438 32.621094 26.402344 32.609375 26.414062 C 31.660156 27.128906 31.273438 27.839844 31.460938 28.511719 C 31.789062 29.722656 33.617188 30.921875 35.441406 31.128906 C 39.894531 31.632812 46.578125 28.394531 50.917969 25.167969 C 51.417969 24.78125 52.121094 24.710938 52.703125 25.046875 L 101.480469 53.207031 C 102.84375 50.433594 106.230469 45.375 113.464844 43.070312 L 98.574219 12.125 C 95.789062 14.257812 91.539062 16.429688 86.929688 16.429688 C 84.378906 16.429688 81.726562 15.765625 79.144531 14.066406 C 72.785156 9.875 60.5625 4.082031 50.144531 12.40625 Z M 50.144531 12.40625 " fill-opacity="1" fill-rule="evenodd"/></g><g clip-path="url(#75b2101e16)"><path fill="#6b9f25" d="M 17.695312 13.683594 L 0.347656 43.726562 L 13.046875 51.058594 C 15.359375 48.203125 19.476562 47.371094 22.757812 49.261719 C 24.160156 50.070312 25.242188 51.28125 25.890625 52.738281 C 26.902344 51.410156 28.320312 50.460938 29.96875 50.019531 C 31.929688 49.492188 33.984375 49.757812 35.738281 50.769531 C 37.492188 51.78125 38.746094 53.425781 39.273438 55.390625 C 39.425781 55.960938 39.511719 56.535156 39.53125 57.109375 C 39.613281 57.085938 39.6875 57.066406 39.765625 57.042969 C 41.730469 56.515625 43.78125 56.78125 45.535156 57.796875 C 47.289062 58.804688 48.542969 60.449219 49.070312 62.414062 C 49.589844 64.359375 49.335938 66.386719 48.347656 68.128906 C 49.90625 67.980469 51.46875 68.316406 52.851562 69.113281 C 52.949219 69.167969 53.042969 69.226562 53.136719 69.285156 L 65.964844 76.691406 L 65.972656 76.695312 L 71.136719 79.679688 C 72.226562 80.308594 73.503906 80.476562 74.734375 80.140625 C 75.964844 79.8125 76.984375 79.03125 77.613281 77.941406 C 78.242188 76.847656 78.410156 75.570312 78.078125 74.339844 C 77.75 73.121094 76.976562 72.105469 75.902344 71.472656 L 75.878906 71.460938 L 60.363281 62.503906 C 59.597656 62.0625 59.332031 61.082031 59.777344 60.3125 C 60.21875 59.542969 61.207031 59.28125 61.972656 59.726562 L 77.476562 68.679688 L 77.484375 68.683594 L 83.238281 72 C 84.332031 72.632812 85.605469 72.796875 86.835938 72.464844 C 88.0625 72.140625 89.089844 71.355469 89.71875 70.261719 C 90.347656 69.171875 90.515625 67.898438 90.179688 66.664062 C 89.863281 65.472656 89.117188 64.476562 88.078125 63.839844 C 88.042969 63.824219 88.011719 63.808594 87.980469 63.789062 L 72.464844 54.832031 C 71.695312 54.386719 71.433594 53.402344 71.878906 52.636719 C 72.320312 51.871094 73.304688 51.605469 74.070312 52.050781 L 89.453125 60.933594 C 89.5 60.953125 89.542969 60.976562 89.589844 61.003906 L 89.597656 61.007812 L 95.996094 64.703125 C 98.261719 66.011719 101.167969 65.234375 102.476562 62.964844 C 103.105469 61.875 103.273438 60.601562 102.941406 59.367188 C 102.675781 58.371094 102.109375 57.511719 101.328125 56.890625 C 101.28125 56.859375 101.238281 56.824219 101.191406 56.785156 C 101.050781 56.679688 100.894531 56.578125 100.738281 56.488281 L 52 28.347656 C 48.011719 31.121094 40.761719 34.972656 35.082031 34.320312 C 32.332031 34.003906 29.140625 32.199219 28.367188 29.355469 C 28.050781 28.191406 27.929688 25.941406 30.660156 23.859375 L 47.355469 10.523438 C 43.433594 8.003906 41.253906 9.613281 37.890625 12.089844 C 35.101562 14.140625 31.835938 16.550781 27.03125 16.550781 C 25.078125 16.550781 22.875 16.152344 20.34375 15.175781 C 20.265625 15.148438 20.195312 15.113281 20.121094 15.070312 Z M 17.695312 13.683594 " fill-opacity="1" fill-rule="evenodd"/></g><path fill="#6b9f25" d="M 14.910156 54.070312 L 10.042969 62.5 C 8.832031 64.59375 9.554688 67.285156 11.648438 68.496094 C 12.65625 69.082031 13.839844 69.230469 14.980469 68.925781 C 16.117188 68.621094 17.0625 67.898438 17.648438 66.886719 L 17.6875 66.828125 L 22.859375 57.871094 C 23.363281 56.902344 23.484375 55.789062 23.195312 54.714844 C 22.890625 53.578125 22.164062 52.632812 21.15625 52.046875 C 19.058594 50.832031 16.367188 51.554688 15.15625 53.652344 L 14.988281 53.945312 L 14.953125 54.011719 Z M 14.910156 54.070312 " fill-opacity="1" fill-rule="evenodd"/><path fill="#6b9f25" d="M 28.128906 55.167969 L 20.433594 68.5 C 19.847656 69.507812 19.699219 70.691406 20.003906 71.832031 C 20.308594 72.96875 21.03125 73.914062 22.042969 74.5 C 23.050781 75.085938 24.234375 75.234375 25.375 74.929688 C 26.449219 74.644531 27.351562 73.984375 27.941406 73.0625 L 28.039062 72.890625 C 28.0625 72.84375 28.089844 72.800781 28.121094 72.761719 L 35.085938 60.695312 C 35.101562 60.65625 35.121094 60.621094 35.144531 60.582031 C 35.191406 60.5 35.242188 60.417969 35.292969 60.335938 L 35.742188 59.554688 C 36.953125 57.460938 36.234375 54.769531 34.136719 53.558594 C 33.460938 53.167969 32.714844 52.972656 31.957031 52.972656 C 31.570312 52.972656 31.183594 53.023438 30.804688 53.128906 C 29.664062 53.433594 28.714844 54.152344 28.128906 55.167969 Z M 28.128906 55.167969 " fill-opacity="1" fill-rule="evenodd"/><path fill="#6b9f25" d="M 37.960938 62.117188 L 30.816406 74.492188 L 30.753906 74.597656 C 29.628906 76.679688 30.363281 79.300781 32.421875 80.492188 C 34.496094 81.691406 37.164062 80.988281 38.386719 78.9375 L 38.417969 78.882812 L 38.457031 78.824219 L 45.527344 66.578125 C 46.738281 64.484375 46.019531 61.792969 43.921875 60.582031 C 42.914062 59.996094 41.730469 59.84375 40.589844 60.152344 C 39.480469 60.445312 38.546875 61.144531 37.960938 62.117188 Z M 37.960938 62.117188 " fill-opacity="1" fill-rule="evenodd"/><path fill="#6b9f25" d="M 45.3125 73.378906 L 41.207031 80.492188 L 41.125 80.625 C 40.601562 81.605469 40.480469 82.730469 40.769531 83.816406 C 41.074219 84.953125 41.796875 85.898438 42.808594 86.484375 C 43.816406 87.066406 45 87.21875 46.140625 86.914062 C 47.277344 86.613281 48.222656 85.886719 48.808594 84.875 L 52.84375 77.890625 C 54.023438 75.847656 53.367188 73.242188 51.402344 71.992188 L 51.234375 71.894531 C 51.207031 71.878906 51.175781 71.859375 51.148438 71.839844 C 49.105469 70.726562 46.535156 71.410156 45.3125 73.378906 Z M 45.3125 73.378906 " fill-opacity="1" fill-rule="evenodd"/><g clip-path="url(#3827020249)"><path fill="#6b9f25" d="M 56.609375 75 C 56.757812 76.558594 56.421875 78.117188 55.628906 79.496094 L 53.078125 83.914062 L 59.621094 87.691406 C 60.710938 88.320312 61.988281 88.488281 63.21875 88.15625 C 64.445312 87.828125 65.472656 87.042969 66.097656 85.953125 C 66.730469 84.859375 66.894531 83.585938 66.5625 82.355469 C 66.242188 81.148438 65.476562 80.132812 64.410156 79.503906 L 64.363281 79.472656 Z M 56.609375 75 " fill-opacity="1" fill-rule="evenodd"/></g></svg>