<svg xmlns="http://www.w3.org/2000/svg" xmlns:xlink="http://www.w3.org/1999/xlink" width="118" zoomAndPan="magnify" viewBox="0 0 88.5 89.249998" height="119" preserveAspectRatio="xMidYMid meet" version="1.0"><defs><filter x="0%" y="0%" width="100%" height="100%" id="77437baa96"><feColorMatrix values="0 0 0 0 1 0 0 0 0 1 0 0 0 0 1 0 0 0 1 0" color-interpolation-filters="sRGB"/></filter><clipPath id="37c98ed6e9"><path d="M 0.121094 0 L 87.882812 0 L 87.882812 88 L 0.121094 88 Z M 0.121094 0 " clip-rule="nonzero"/></clipPath><mask id="73937e31fa"><g filter="url(#77437baa96)"><rect x="-8.85" width="106.2" fill="#000000" y="-8.925" height="107.099998" fill-opacity="0.68"/></g></mask><clipPath id="4bac9641aa"><path d="M 0.121094 0 L 87.140625 0 L 87.140625 87.019531 L 0.121094 87.019531 Z M 0.121094 0 " clip-rule="nonzero"/></clipPath><clipPath id="cfb10bc7be"><rect x="0" width="88" y="0" height="88"/></clipPath></defs><g clip-path="url(#37c98ed6e9)"><g mask="url(#73937e31fa)"><g transform="matrix(1, 0, 0, 1, 0, -0.000000000000011587)"><g clip-path="url(#cfb10bc7be)"><g clip-path="url(#4bac9641aa)"><path fill="#8fc453" d="M 43.796875 0 C 39.542969 35.96875 36.089844 39.421875 0.121094 43.679688 C 0.195312 43.6875 0.269531 43.695312 0.34375 43.703125 L 0.34375 43.707031 L 0.34375 43.703125 C 36.105469 47.949219 39.550781 51.460938 43.796875 87.355469 C 48.054688 51.386719 51.507812 47.933594 87.476562 43.679688 C 51.507812 39.421875 48.054688 35.96875 43.796875 0 Z M 43.796875 0 " fill-opacity="1" fill-rule="nonzero"/></g></g></g></g></g></svg>